<svg id="Слой_1" data-name="Слой 1" xmlns="http://www.w3.org/2000/svg" viewBox="0 0 122.79 112.96"><defs><style>.cls-1{fill:#41b599;fill-rule:evenodd;}</style></defs><title>valu</title><path class="cls-1" d="M111.34,92.42,91.27,115.34h26.92l8.41-22.92Zm-20.7,29.34,44,58.34L118,121.76Zm-8.89-1.14a3.21,3.21,0,0,1,.22-4.37L107.32,87.3A3.22,3.22,0,0,1,109.9,86h65a3.19,3.19,0,0,1,2.58,1.3l25.36,29a3.21,3.21,0,0,1,.16,4.42l-58,77a3.21,3.21,0,0,1-5.19,0l-58.05-77ZM125,115.34l8.4-22.92h17.94l8.41,22.92Zm41.57,0h26.93L173.44,92.42H158.19l8.4,22.92Zm27.56,6.42H166.78l-16.6,58.34,44-58.34Zm-34,0L142.39,184l-17.71-62.28Z" transform="translate(-81 -86)"/></svg>